<?xml version="1.0" encoding="UTF-8" standalone="no"?>
<svg
   data-name="Layer 1"
   viewBox="0 0 32 40"
   x="0px"
   y="0px"
   version="1.1"
   id="svg9"
   sodipodi:docname="listen.svg"
   inkscape:version="1.3.2 (091e20e, 2023-11-25, custom)"
   xmlns:inkscape="http://www.inkscape.org/namespaces/inkscape"
   xmlns:sodipodi="http://sodipodi.sourceforge.net/DTD/sodipodi-0.dtd"
   xmlns="http://www.w3.org/2000/svg"
   xmlns:svg="http://www.w3.org/2000/svg">
  <defs
     id="defs9" />
  <sodipodi:namedview
     id="namedview9"
     pagecolor="#ffffff"
     bordercolor="#000000"
     borderopacity="0.25"
     inkscape:showpageshadow="2"
     inkscape:pageopacity="0.0"
     inkscape:pagecheckerboard="0"
     inkscape:deskcolor="#d1d1d1"
     inkscape:zoom="20.525"
     inkscape:cx="16.004872"
     inkscape:cy="20"
     inkscape:window-width="1920"
     inkscape:window-height="1017"
     inkscape:window-x="-8"
     inkscape:window-y="-8"
     inkscape:window-maximized="1"
     inkscape:current-layer="svg9" />
  <path
     d="m9.5,13c-.276,0-.5.224-.5.5v5c0,.276.224.5.5.5s.5-.224.5-.5v-5c0-.276-.224-.5-.5-.5Z"
     stroke-width="0"
     id="path1"
     style="fill:#ff8080" />
  <path
     d="m11,14.5v3c0,.276.224.5.5.5s.5-.224.5-.5v-3c0-.276-.224-.5-.5-.5s-.5.224-.5.5Z"
     stroke-width="0"
     id="path2"
     style="fill:#ff8080" />
  <path
     d="m13,11.5v7c0,.276.224.5.5.5s.5-.224.5-.5v-7c0-.276-.224-.5-.5-.5s-.5.224-.5.5Z"
     stroke-width="0"
     id="path3"
     style="fill:#ff2a2a" />
  <path
     d="m15.5,17c.276,0,.5-.224.5-.5v-2c0-.276-.224-.5-.5-.5s-.5.224-.5.5v2c0,.276.224.5.5.5Z"
     stroke-width="0"
     id="path4"
     style="fill:#ff8080" />
  <path
     d="m16,3c-7.168,0-13,5.832-13,13s5.832,13,13,13,13-5.832,13-13S23.168,3,16,3Zm8.018,21.902l-1.623-1.51c-.311-.289-.48-.681-.479-1.105.002-.424.175-.815.488-1.102l3.332-3.04c.868-.792,1.069-2.059.489-3.081l-.817-1.439c-.087-.154-.245-.235-.409-.244v-.882c0-.276-.224-.5-.5-.5h-1.535c-.172-1.698-1.294-3.185-2.919-3.78l-1.03-.377c-.46-.167-.973-.101-1.375.179-.401.281-.641.74-.641,1.229v9.7c0,.489.239.949.641,1.229.256.178.557.271.86.271.173,0,.348-.03.515-.091l1.03-.377c1.69-.618,2.837-2.201,2.935-3.983h1.519c.276,0,.5-.224.5-.5v-.571l.357.629c.348.613.227,1.374-.294,1.849l-3.332,3.04c-.515.47-.812,1.139-.814,1.835-.004.696.287,1.368.797,1.842l1.528,1.421c-2.015,1.533-4.52,2.454-7.242,2.454-6.617,0-12-5.383-12-12s5.383-12,12-12,12,5.383,12,12c0,3.533-1.544,6.704-3.982,8.902Zm-1.018-11.902h1v2h-1v-2Zm-1,2.757c0,1.463-.924,2.784-2.298,3.287l-1.03.377c-.152.057-.321.037-.458-.06-.136-.095-.214-.244-.214-.41v-9.7c0-.166.078-.315.214-.41.086-.06.185-.091.284-.091.059,0,.117.01.174.031l1.03.377c1.374.503,2.298,1.824,2.298,3.287v3.311Z"
     stroke-width="0"
     id="path5"
     style="fill:#0404a3;fill-opacity:0.8255319" />
  <path
     d="m14,20c-1.654,0-3,1.346-3,3s1.346,3,3,3,3-1.346,3-3-1.346-3-3-3Zm0,5c-1.103,0-2-.897-2-2s.897-2,2-2,2,.897,2,2-.897,2-2,2Z"
     stroke-width="0"
     id="path6"
     style="fill:#a000ef;fill-opacity:1" />
  <path
     d="m6.5,13c-.827,0-1.5.673-1.5,1.5s.673,1.5,1.5,1.5,1.5-.673,1.5-1.5-.673-1.5-1.5-1.5Zm0,2c-.275,0-.5-.224-.5-.5s.225-.5.5-.5.5.224.5.5-.225.5-.5.5Z"
     stroke-width="0"
     id="path7"
     style="fill:#8400ff;fill-opacity:1" />
  <path
     d="m14,8c0-1.103-.897-2-2-2s-2,.897-2,2,.897,2,2,2,2-.897,2-2Zm-3,0c0-.551.448-1,1-1s1,.449,1,1-.448,1-1,1-1-.449-1-1Z"
     stroke-width="0"
     id="path8"
     style="fill:#a000ef;fill-opacity:1" />
  <text
     x="0"
     y="47"
     fill="#000000"
     font-size="5px"
     font-weight="bold"
     font-family="'Helvetica Neue', Helvetica, Arial-Unicode, Arial, Sans-serif"
     id="text8">Created by Dibyo</text>
  <text
     x="0"
     y="52"
     fill="#000000"
     font-size="5px"
     font-weight="bold"
     font-family="'Helvetica Neue', Helvetica, Arial-Unicode, Arial, Sans-serif"
     id="text9">from the Noun Project</text>
</svg>
